<svg width="87" height="88" viewBox="0 0 87 88" fill="none" xmlns="http://www.w3.org/2000/svg">
<ellipse cx="43.6503" cy="44.4756" rx="43.5244" ry="43.3005" transform="rotate(-90 43.6503 44.4756)" fill="#FF9914"/>
<path d="M34.0004 58.0927L34.0004 54.6232C35.584 53.3051 37.118 51.9993 38.6026 50.706C40.112 49.4127 41.4481 48.1319 42.611 46.8634C43.7987 45.595 44.7389 44.3639 45.4317 43.1701C46.1493 41.9514 46.5081 40.77 46.5081 39.6259C46.5081 38.5565 46.2112 37.6114 45.6173 36.7906C45.0482 35.9699 44.0956 35.5595 42.7595 35.5595C41.3986 35.5595 40.3718 36.0072 39.679 36.9026C38.9861 37.7979 38.6397 38.8798 38.6397 40.1482L34.0375 40.1482C34.087 38.2332 34.5076 36.6414 35.2994 35.373C36.0912 34.0797 37.1428 33.1221 38.4542 32.5004C39.7656 31.8537 41.2378 31.5304 42.8708 31.5304C45.5183 31.5304 47.572 32.2641 49.0319 33.7315C50.5165 35.174 51.2588 37.0518 51.2588 39.3648C51.2588 40.8073 50.9247 42.2125 50.2567 43.5804C49.6133 44.9484 48.7597 46.2665 47.6957 47.535C46.6318 48.8034 45.4812 49.9972 44.2441 51.1164C43.0069 52.2107 41.8069 53.2304 40.6439 54.1755L51.8897 54.1755L51.8897 58.0927L34.0004 58.0927Z" fill="white"/>
</svg>
