<svg width="87" height="88" viewBox="0 0 87 88" fill="none" xmlns="http://www.w3.org/2000/svg">
<ellipse cx="43.6995" cy="44.4756" rx="43.5244" ry="43.3005" transform="rotate(-90 43.6995 44.4756)" fill="#FF9914"/>
<path d="M43.1056 57.6447C41.2004 57.6447 39.555 57.309 38.1694 56.6375C36.8085 55.9659 35.7322 55.0457 34.9404 53.8768C34.1733 52.683 33.728 51.3399 33.6042 49.8477L38.2436 49.8477C38.4663 50.9171 39.0106 51.8125 39.8766 52.5337C40.7427 53.2301 41.819 53.5783 43.1056 53.5783C44.4912 53.5783 45.6171 53.0685 46.4831 52.0487C47.3738 51.029 47.8192 49.7606 47.8192 48.2435C47.8192 46.6766 47.3738 45.433 46.4831 44.5128C45.6171 43.5926 44.516 43.1325 43.1799 43.1325C42.0664 43.1325 41.1014 43.406 40.2849 43.9532C39.4684 44.5004 38.8869 45.1843 38.5405 46.0051L33.9754 46.0051L36.2023 31.0824L50.6028 31.0824L50.6028 35.2607L39.7653 35.2607L38.5776 41.3044C39.122 40.7075 39.8643 40.2225 40.8045 39.8495C41.7448 39.4515 42.7963 39.2526 43.9593 39.2526C45.815 39.2526 47.3614 39.6754 48.5986 40.521C49.8358 41.3417 50.776 42.4361 51.4193 43.804C52.0627 45.147 52.3843 46.6144 52.3843 48.2062C52.3843 50.0217 51.9884 51.6384 51.1966 53.056C50.4296 54.4737 49.3409 55.5929 47.9305 56.4136C46.5449 57.2344 44.9366 57.6447 43.1056 57.6447Z" fill="white"/>
</svg>
