<svg width="88" height="88" viewBox="0 0 88 88" fill="none" xmlns="http://www.w3.org/2000/svg">
<ellipse cx="44.0001" cy="44.4756" rx="43.5244" ry="43.3005" transform="rotate(-90 44.0001 44.4756)" fill="#FF9914"/>
<path d="M43.7031 58.1294C41.9959 58.1294 40.4494 57.831 39.0638 57.234C37.6782 56.6123 36.5647 55.6672 35.7235 54.3987C34.8822 53.1303 34.4368 51.5386 34.3873 49.6235L39.0638 49.6235C39.0885 50.8919 39.4968 51.9614 40.2886 52.8319C41.1051 53.6775 42.2433 54.1003 43.7031 54.1003C45.0887 54.1003 46.1527 53.7148 46.895 52.9438C47.6373 52.1728 48.0084 51.2028 48.0084 50.0339C48.0084 48.666 47.5136 47.6338 46.5239 46.9374C45.5589 46.2161 44.3093 45.8555 42.7753 45.8555L40.8453 45.8555L40.8453 41.9383L42.8124 41.9383C44.0743 41.9383 45.1259 41.6399 45.9671 41.043C46.8084 40.446 47.229 39.5631 47.229 38.3942C47.229 37.4242 46.9074 36.6532 46.2641 36.0812C45.6455 35.4843 44.7795 35.1858 43.666 35.1858C42.4536 35.1858 41.501 35.5464 40.8082 36.2677C40.1401 36.989 39.769 37.8719 39.6947 38.9165L35.0554 38.9165C35.1544 36.504 35.9833 34.6013 37.5421 33.2086C39.1256 31.8158 41.167 31.1194 43.666 31.1194C45.4475 31.1194 46.9445 31.4427 48.1569 32.0894C49.3941 32.7111 50.3219 33.5443 50.9405 34.5889C51.5838 35.6335 51.9055 36.79 51.9055 38.0584C51.9055 39.5258 51.4972 40.7694 50.6807 41.7891C49.8889 42.7839 48.8992 43.4555 47.7115 43.8036C49.1714 44.1021 50.359 44.8234 51.2745 45.9674C52.19 47.0866 52.6478 48.5043 52.6478 50.2204C52.6478 51.6629 52.3014 52.9811 51.6086 54.1749C50.9158 55.3687 49.9013 56.3263 48.5652 57.0475C47.2538 57.7688 45.6331 58.1294 43.7031 58.1294Z" fill="white"/>
</svg>
