<svg width="8" height="6" viewBox="0 0 8 6" fill="none" xmlns="http://www.w3.org/2000/svg">
<path d="M0.572211 2.24904e-06C0.705674 -0.000388729 0.835015 0.0692867 0.937782 0.196934L3.99944 4.03283L7.06681 0.333932C7.12524 0.262809 7.19246 0.209696 7.26463 0.177646C7.3368 0.145595 7.41247 0.13524 7.48732 0.147176C7.56216 0.159111 7.6347 0.1931 7.70075 0.247191C7.7668 0.301282 7.82507 0.374409 7.87221 0.462366C7.91965 0.549947 7.95509 0.650722 7.97647 0.758897C7.99785 0.867072 8.00476 0.980515 7.9968 1.0927C7.98883 1.20489 7.96616 1.31362 7.93007 1.41263C7.89399 1.51164 7.8452 1.59899 7.78653 1.66964L4.3593 5.80522C4.25709 5.93115 4.12889 6 3.99658 6C3.86428 6 3.73607 5.93115 3.63387 5.80522L0.20664 1.52408C0.148801 1.45221 0.10099 1.36393 0.0659448 1.26431C0.0309002 1.16469 0.00931042 1.05568 0.0024125 0.943539C-0.00448494 0.831393 0.00344486 0.71831 0.025747 0.610764C0.0480496 0.503219 0.0842864 0.403326 0.132383 0.316806C0.185536 0.218585 0.252545 0.139235 0.328593 0.0844582C0.404641 0.0296815 0.48784 0.000838604 0.572211 2.24904e-06Z" fill="#FF9914"/>
</svg>
