<svg width="100" height="100" viewBox="0 0 100 100" fill="none" xmlns="http://www.w3.org/2000/svg">
<circle cx="50" cy="50" r="50" fill="#FF9914"/>
<path fill-rule="evenodd" clip-rule="evenodd" d="M26.4627 32.0455C25.4122 32.2446 24.5418 32.9558 24.1921 33.9009C24.1403 34.0409 24.0758 34.171 24.0489 34.19C24.0053 34.2207 24.0008 35.7111 24.0086 47.5273L24.0173 60.83L24.1082 61.1375C24.2193 61.5132 24.2691 61.6086 24.5203 61.9265C25.0057 62.5409 25.6622 62.919 26.5072 63.071C26.7589 63.1162 27.8346 63.1423 29.4972 63.1433C29.7152 63.1434 29.7436 63.1509 29.8274 63.2308C29.8905 63.2909 29.9291 63.3707 29.9516 63.487C30.1784 64.6618 30.2704 64.96 30.6073 65.6121C30.7308 65.8512 30.9138 66.163 31.0139 66.305C31.2021 66.5718 31.2247 66.631 31.1553 66.6739C31.1329 66.6877 29.686 66.7062 27.9399 66.7149C24.9719 66.7298 24.7552 66.7345 24.6117 66.7873C24.4042 66.8637 24.2222 67.0402 24.1008 67.2827C24.008 67.4681 24 67.51 24 67.8083C24 68.1183 24.0044 68.1386 24.1003 68.2767C24.275 68.5283 24.5582 68.7011 24.8962 68.7624C25.0407 68.7886 31.5229 68.7953 50.0814 68.7886L75.072 68.7795L75.2837 68.7095C75.5892 68.6085 75.7786 68.4638 75.8907 68.246C75.9707 68.0906 75.9833 68.0306 75.9807 67.8169C75.9761 67.4216 75.8436 67.1953 75.5228 67.0347C75.1792 66.8626 75.0942 66.8542 73.6964 66.8542C72.9935 66.8542 72.4184 66.8508 72.4183 66.8466C72.4183 66.8424 72.4922 66.7516 72.5825 66.6448C73.3893 65.6904 73.8557 64.547 73.9429 63.3096C73.974 62.8672 74.0033 62.8082 74.2505 62.6894C74.9733 62.3419 75.5091 61.7996 75.7719 61.1493C75.9898 60.6104 75.9837 60.7195 75.9837 57.321C75.9837 54.4068 75.9805 54.2346 75.9221 54.0139C75.8743 53.8333 75.2357 52.5897 73.0838 48.4864C71.5567 45.5744 70.231 43.0801 70.1378 42.9435C69.8216 42.4797 69.3332 42.0964 68.7998 41.8933C68.2703 41.6916 68.6081 41.7054 63.7571 41.687C59.0159 41.6691 59.2306 41.6773 59.1644 41.5111C59.1454 41.4636 59.1334 40.1187 59.1334 38.0547C59.1334 34.4087 59.1341 34.4246 58.9598 33.9375C58.8004 33.4917 58.5323 33.1003 58.1564 32.7647C57.7445 32.3969 57.2763 32.1678 56.708 32.0559C56.4243 32 55.9211 31.9982 41.5504 32.0006C29.1322 32.0027 26.6495 32.0101 26.4627 32.0455ZM56.0954 33.9523C56.7228 34.0212 57.0112 34.2957 57.0832 34.8927C57.1279 35.2636 57.125 60.6687 57.0803 60.8225C57.0605 60.8905 57.0102 60.9618 56.9598 60.9933C56.8782 61.0442 56.4554 61.0474 49.5782 61.0479C45.5658 61.0482 42.2329 61.0386 42.1716 61.0267C41.9969 60.9925 41.9021 60.9061 41.7665 60.6572C41.0912 59.4179 40.4426 58.6733 39.5309 58.0907C38.4945 57.4284 37.1242 57.1136 35.7057 57.212C33.4406 57.3691 31.8302 58.418 30.723 60.4573C30.4695 60.9242 30.4678 60.9266 30.3355 60.9929C30.2465 61.0375 30.0519 61.0422 28.5774 61.0348C27.0272 61.027 26.9056 61.0225 26.7091 60.9646C26.5471 60.9169 26.4632 60.8686 26.3428 60.7538C26.12 60.5413 26.0477 60.3078 26.0442 59.7897C26.0414 59.3638 26.0677 59.2627 26.203 59.178C26.2851 59.1267 26.4192 59.1208 27.8089 59.1065L29.3253 59.091L29.5425 58.989C29.7702 58.8821 29.9047 58.7511 30.0119 58.5321C30.069 58.4152 30.0732 58.2811 30.0819 56.2689C30.0921 53.8994 30.0945 53.9306 29.8837 53.6666C29.8119 53.5766 29.7033 53.4968 29.5536 53.4238L29.3305 53.3152L27.7805 53.2996C26.928 53.2911 26.2061 53.2726 26.1764 53.2586C26.0291 53.1889 26.0345 53.5738 26.0441 43.9251C26.0499 38.0164 26.0645 34.766 26.0855 34.6764C26.1822 34.265 26.4892 34.0156 26.9725 33.9556C27.2644 33.9193 55.7657 33.9162 56.0954 33.9523ZM34.8308 37.8568C34.635 37.921 34.3506 38.1627 34.2593 38.3425C34.0563 38.7424 34.142 39.1908 34.4777 39.4859C34.6924 39.6747 34.8778 39.7438 35.1684 39.7434C35.482 39.743 35.6956 39.6563 35.9022 39.4457C36.1116 39.2322 36.1903 39.0513 36.1908 38.7824C36.1916 38.4047 35.9637 38.0624 35.598 37.8922C35.3993 37.7997 35.0538 37.7838 34.8308 37.8568ZM38.909 37.8757C38.5277 38 38.3018 38.2313 38.2272 38.5742C38.1253 39.0421 38.3834 39.4853 38.8658 39.6706L39.0595 39.745H45.6043C51.8723 39.745 52.1568 39.7426 52.3315 39.6879C52.5883 39.6074 52.8135 39.4359 52.9276 39.2338C53.0522 39.0133 53.0794 38.6968 52.9947 38.4536C52.9166 38.2295 52.671 37.9952 52.4085 37.8944L52.2142 37.8197L45.6694 37.8126L39.1246 37.8055L38.909 37.8757ZM43.2359 41.6865C42.913 41.7391 42.7498 41.8128 42.5569 41.993C42.3518 42.1845 42.2668 42.3766 42.2668 42.6485C42.2668 42.7277 42.2901 42.8684 42.3186 42.9611C42.391 43.1969 42.6602 43.4479 42.9521 43.5517L43.1622 43.6264L47.5091 43.6352C50.4942 43.6413 51.9274 43.6337 52.0839 43.6107C52.4978 43.55 52.7889 43.3709 52.9546 43.0746C53.0603 42.8858 53.0613 42.4129 52.9565 42.2257C52.8436 42.0242 52.5831 41.8215 52.3331 41.7405L52.1165 41.6703L47.7533 41.6658C45.3535 41.6633 43.3207 41.6726 43.2359 41.6865ZM67.9727 43.7013C68.3188 43.8342 68.4445 43.9896 68.8623 44.8021C69.0631 45.1924 69.2273 45.524 69.2273 45.539C69.2273 45.5543 67.6335 45.5698 65.5723 45.5746C62.1392 45.5825 61.9082 45.5864 61.7665 45.639C61.4153 45.7694 61.2468 46.0105 61.1865 46.4689C61.1409 46.8164 61.1404 54.0662 61.186 54.371C61.2463 54.7735 61.4379 55.031 61.769 55.1542C61.9087 55.2062 62.2644 55.2103 67.8545 55.2249L73.7915 55.2404L73.871 55.3286L73.9506 55.4168L73.9415 57.8749L73.9324 60.3331L73.8558 60.4947C73.6975 60.8286 73.4677 60.8401 73.3627 60.5194C73.3061 60.3466 73.0017 59.8643 72.716 59.4947C72.3557 59.0287 71.6701 58.3949 71.2124 58.1046C70.3804 57.577 69.5359 57.3023 68.4621 57.2102C67.7821 57.1518 66.9069 57.2188 66.2359 57.3806C64.5366 57.7904 63.2829 58.7959 62.3985 60.4582C62.1612 60.9041 62.1055 60.9765 61.9693 61.0162C61.9263 61.0288 61.3044 61.0392 60.5875 61.0395L59.2839 61.04L59.2086 60.9565L59.1334 60.8731L59.1339 52.3585C59.1342 45.5913 59.1427 43.8282 59.1752 43.767C59.2614 43.6046 59.0743 43.6109 63.578 43.619L67.7784 43.6266L67.9727 43.7013ZM70.2367 47.532C70.3009 47.5622 70.6329 48.1719 71.805 50.4117C72.6228 51.9744 73.2931 53.2635 73.2947 53.2763C73.2962 53.2892 71.0573 53.2996 68.3192 53.2996C63.6262 53.2996 63.337 53.2965 63.2715 53.2453L63.202 53.1909L63.2015 50.4738C63.2013 48.9794 63.2016 47.7253 63.2023 47.6868C63.203 47.6484 63.2328 47.589 63.2687 47.5548C63.333 47.4935 63.3769 47.4927 66.7445 47.4932C69.385 47.4935 70.1737 47.5023 70.2367 47.532ZM27.819 55.2977C28.0156 55.3761 28.0485 55.4861 28.0637 56.1138C28.0781 56.7143 28.0439 56.9493 27.9267 57.0543C27.8155 57.1539 27.4901 57.1917 26.8954 57.1739C26.3465 57.1574 26.2513 57.1338 26.1357 56.985C26.0728 56.904 26.0669 56.8495 26.0576 56.2651C26.0438 55.3866 26.0729 55.3115 26.4499 55.2543C26.7364 55.2108 27.6757 55.2406 27.819 55.2977ZM36.7598 59.155C37.6304 59.277 38.4154 59.6547 39.0443 60.2545C39.855 61.0277 40.2856 62.0647 40.2374 63.1279C40.1913 64.1461 39.7725 65.0307 38.9991 65.7443C38.2024 66.4793 37.2757 66.8387 36.1772 66.8387C35.1012 66.8387 34.1107 66.4483 33.3437 65.722C32.1204 64.5636 31.7941 62.8416 32.5154 61.3505C32.7876 60.7877 33.3888 60.1146 33.9148 59.7835C34.7879 59.234 35.7719 59.0166 36.7598 59.155ZM68.4133 59.1517C69.6533 59.3313 70.6964 59.9937 71.3445 61.0132C71.9514 61.9679 72.0838 63.1739 71.6971 64.2245C71.2051 65.5608 69.9877 66.5538 68.5477 66.7933C68.1973 66.8516 67.5222 66.8516 67.1718 66.7933C65.2529 66.4742 63.8189 64.8562 63.8129 63.0037C63.8109 62.3999 63.9363 61.8548 64.1986 61.3257C64.9461 59.8182 66.7151 58.9057 68.4133 59.1517ZM35.6965 61.0924C34.9666 61.2812 34.392 61.8266 34.2065 62.5068C34.1389 62.7547 34.1392 63.2012 34.2072 63.4514C34.4418 64.3149 35.2508 64.92 36.1778 64.9253C36.5205 64.9272 36.738 64.879 37.0733 64.7266C37.5468 64.5113 37.9133 64.1226 38.1082 63.6293C38.1985 63.4005 38.2083 63.3407 38.2105 63.0037C38.2125 62.7004 38.1995 62.5906 38.1407 62.4137C37.9972 61.9817 37.6393 61.5449 37.2421 61.3169C36.7878 61.056 36.1789 60.9676 35.6965 61.0924ZM67.3713 61.0935C66.978 61.1941 66.7353 61.328 66.4415 61.6062C66.0069 62.0179 65.8259 62.4267 65.8296 62.9882C65.8314 63.2521 65.8481 63.362 65.9174 63.5651C66.0077 63.8294 66.1782 64.1081 66.3797 64.3209C66.5668 64.5184 66.9492 64.7458 67.2504 64.8387C67.6307 64.9559 68.0889 64.9559 68.4691 64.8387C69.0951 64.6456 69.5777 64.1881 69.8042 63.573C69.8748 63.3813 69.8885 63.2887 69.8903 62.9882C69.8923 62.6668 69.8827 62.6044 69.7941 62.3657C69.5741 61.7733 69.0945 61.3212 68.4784 61.1254C68.1662 61.0261 67.6885 61.0124 67.3713 61.0935ZM61.5851 63.0231C61.7184 63.0757 61.7722 63.2048 61.8082 63.5582C61.9237 64.6942 62.3844 65.7556 63.1545 66.6602L63.3065 66.8387H52.0358H40.7651L40.9091 66.6602C41.3303 66.1376 41.7731 65.3701 41.9557 64.846C42.1021 64.4259 42.2342 63.8187 42.2342 63.566C42.2342 63.3023 42.3016 63.0989 42.4067 63.0453C42.4436 63.0265 42.5481 63.0024 42.6389 62.9918C42.7297 62.9813 47.0093 62.9759 52.149 62.9799C59.1359 62.9853 61.5171 62.9962 61.5851 63.0231Z" fill="white"/>
</svg>
