<svg width="100" height="100" viewBox="0 0 100 100" fill="none" xmlns="http://www.w3.org/2000/svg">
<circle cx="50" cy="50" r="50" fill="#FF9914"/>
<path fill-rule="evenodd" clip-rule="evenodd" d="M46.1051 26.0723C45.6751 26.2461 45.3876 26.5651 45.2289 27.0442C45.18 27.1917 44.8013 29.2024 44.6106 30.3269C44.5081 30.9316 44.4696 31.0536 44.3397 31.186C44.2208 31.3072 44.1874 31.3205 43.8273 31.3903C43.4881 31.4561 42.1669 31.9614 35.6827 34.5055C31.3059 36.2227 31.4233 36.1741 30.9133 36.4767C29.7084 37.1914 28.8851 38.2787 28.5212 39.6357C28.4181 40.0201 27.6653 44.0873 26.9694 48.0199C26.8132 48.9022 26.4688 50.7954 26.2039 52.2271C25.6676 55.1259 25.3555 56.8959 25.1426 58.246L25 59.1497L25.0001 60.158C25.0002 60.9673 25.0102 61.2131 25.0507 61.4033C25.4776 63.4115 27.2757 65.038 29.4951 65.4234C29.7291 65.4641 30.3212 65.5647 30.8107 65.6471C31.3003 65.7295 33.6543 66.1312 36.0418 66.5398C38.4294 66.9485 40.9942 67.3862 41.7414 67.5125C42.4886 67.6389 43.1644 67.7624 43.2432 67.787C43.4 67.836 43.5303 67.9494 43.5819 68.0815C43.6001 68.1282 43.6781 68.5232 43.7553 68.9593C44.0323 70.5248 44.1269 70.8758 44.442 71.5077C45.1861 73.0002 46.5135 74.0296 48.1109 74.3529C48.3833 74.4081 50.0296 74.4211 50.3659 74.3707C50.4748 74.3544 50.7607 74.3258 51.0012 74.3072C51.2417 74.2886 51.5357 74.2604 51.6546 74.2444C51.8756 74.2148 61.8876 72.5074 66.4759 71.7169C67.8758 71.4756 69.3299 71.2311 69.7072 71.1733C70.8494 70.9985 71.3321 70.8651 72.0037 70.5385C73.5719 69.776 74.5459 68.5711 74.8772 66.9837C74.938 66.6923 74.9423 66.5917 74.9313 65.7276C74.9152 64.4689 74.8648 64.0676 74.4082 61.5647C74.2032 60.441 73.6761 57.5399 73.2368 55.1177C72.7975 52.6955 72.1233 48.9907 71.7385 46.8848C71.3537 44.7789 70.8832 42.191 70.6929 41.1339C70.2438 38.6386 70.1903 38.4314 69.7995 37.6683C69.2731 36.6405 68.4279 35.8322 67.2826 35.2611C67.1166 35.1783 66.2031 34.8056 65.2527 34.433C64.3022 34.0603 61.9014 33.1121 59.9175 32.3258C55.5518 30.5955 55.3643 30.5236 55.108 30.4788C54.7403 30.4147 54.6304 30.3792 54.5271 30.2913C54.3978 30.1812 54.3458 30.0267 54.2646 29.5111C54.1586 28.8378 53.83 27.1292 53.777 26.9755C53.6129 26.5003 53.3293 26.2016 52.9091 26.0615C52.7592 26.0115 52.6456 26 52.3018 26C51.6103 26 51.2601 26.1358 50.9715 26.5158C50.6282 26.9678 50.6032 27.2748 50.8122 28.4773C50.8913 28.9326 51.0129 29.5932 51.0823 29.9453C51.2371 30.7307 51.2332 30.796 51.0195 30.9939C50.9384 31.069 50.7747 31.1874 50.6556 31.257C50.4409 31.3825 50.2653 31.519 49.5775 32.0945C49.0683 32.5206 48.9526 32.5668 48.6866 32.4497C48.4819 32.3596 47.8466 31.9437 47.7583 31.8419C47.7139 31.7909 47.669 31.7046 47.6585 31.6502C47.6463 31.5874 47.7081 31.1813 47.8276 30.5388C48.1163 28.9855 48.3026 27.9163 48.3302 27.6533C48.4057 26.9334 48.128 26.4054 47.5278 26.1276L47.2848 26.0151L46.7851 26.0072C46.3178 25.9998 46.2737 26.0041 46.1051 26.0723ZM54.3674 33.382C54.5011 33.4161 55.2309 33.6906 55.9891 33.992C56.7474 34.2934 58.5773 35.0173 60.0558 35.6007C64.2929 37.2726 65.8336 37.8854 65.9804 37.9571C66.6092 38.2644 67.0852 38.8547 67.2713 39.5582C67.2958 39.6508 67.6686 41.6674 68.0998 44.0396C68.5309 46.4119 69.4865 51.6558 70.2232 55.6928C72.1933 66.4887 72.0124 65.4502 71.9968 65.8779C71.9855 66.1842 71.9685 66.2826 71.8878 66.5063C71.6063 67.2873 70.9598 67.8528 70.1362 68.0384C69.6974 68.1373 67.2092 68.5664 55.717 70.5253C52.6767 71.0435 50.0627 71.4881 49.9081 71.5133C49.5725 71.568 49.0339 71.5512 48.7526 71.4772C47.8946 71.2516 47.2678 70.5999 47.0354 69.6917C46.911 69.2056 46.7437 68.2539 46.7827 68.2539C46.8014 68.2539 47.2594 68.3289 47.8003 68.4205C49.4364 68.6975 49.7938 68.7443 50.3999 68.7609C51.0324 68.7781 51.3915 68.744 51.9095 68.6176C52.8164 68.3961 53.6489 67.9396 54.3113 67.3005C54.8227 66.807 55.1934 66.2776 55.4638 65.6542C55.7223 65.0582 55.6934 65.1912 56.3859 61.4134C56.5918 60.2897 57.2112 56.8778 57.7623 53.8313C58.3133 50.7848 58.8776 47.6725 59.0161 46.9151C59.1547 46.1576 59.29 45.4085 59.3169 45.2504C59.3853 44.8485 59.3846 43.908 59.3157 43.5247C59.1753 42.7438 58.8844 42.0739 58.4025 41.4215C57.9991 40.8754 58.0149 40.89 54.0306 37.3978C51.3324 35.033 51.2041 34.9155 51.2044 34.8086C51.2046 34.7058 51.2759 34.6284 51.7507 34.2162C52.379 33.6709 52.7545 33.4552 53.281 33.3373C53.5338 33.2807 54.0539 33.3021 54.3674 33.382ZM43.9587 34.5829C43.9587 34.609 43.8955 34.9963 43.8182 35.4436C43.7409 35.8908 43.6777 36.3434 43.6777 36.4492C43.6777 37.1622 44.1825 37.736 44.899 37.8375C45.6581 37.9449 46.3463 37.5028 46.5343 36.7871C46.5769 36.6248 46.8632 35.1349 46.8632 35.0754C46.8632 35.0615 46.8977 35.0501 46.9399 35.0501C46.9917 35.0501 47.0756 35.107 47.1976 35.2247C47.3749 35.3958 51.063 38.6428 53.7183 40.9654C55.6503 42.6554 55.7967 42.7915 55.9939 43.0797C56.3113 43.5438 56.4363 43.9615 56.4303 44.5391C56.4269 44.8657 56.3777 45.1671 55.9408 47.5356C55.3001 51.0089 54.5155 55.3099 53.688 59.8849C52.9306 64.0723 52.9435 64.0049 52.8459 64.2827C52.4669 65.3611 51.6515 65.9333 50.5015 65.9279C50.0864 65.926 49.6232 65.8509 43.3029 64.7613C39.3895 64.0867 33.6438 63.1009 31.5473 62.7443C30.6556 62.5927 29.8124 62.4339 29.6735 62.3915C28.8125 62.1285 28.2343 61.5507 28.0131 60.7324C27.9712 60.5774 27.9561 60.4149 27.9571 60.127C27.9585 59.7462 27.9965 59.5256 29.1332 53.3016C29.7792 49.7641 30.5684 45.4322 30.8867 43.6752C31.2051 41.9183 31.4952 40.3928 31.5313 40.2852C31.7375 39.6714 32.1091 39.2231 32.6533 38.9318C32.7478 38.8812 33.8018 38.4566 34.9956 37.9881C42.1887 35.1657 43.7958 34.5412 43.8729 34.5385C43.9313 34.5365 43.9587 34.5507 43.9587 34.5829ZM43.625 40.1622C43.2699 40.3225 43.1201 40.5262 42.9901 41.025C42.9387 41.2223 42.8878 41.4807 42.877 41.5993C42.8532 41.8616 42.8027 41.9908 42.6978 42.0574C42.6513 42.0869 42.4792 42.1244 42.2815 42.1481C41.6687 42.2215 41.1925 42.3623 40.675 42.6232C40.2679 42.8284 39.9122 43.0934 39.5389 43.4696C38.7519 44.2628 38.3591 45.1755 38.3156 46.3125C38.2815 47.2012 38.479 47.8818 38.9645 48.5484C39.2621 48.9571 40.0402 49.6427 40.811 50.1752C41.0587 50.3464 41.183 50.4526 41.2103 50.5166C41.2456 50.5991 41.2196 50.772 40.9769 52.069C40.8266 52.8718 40.5666 54.2924 40.3989 55.226C40.2313 56.1595 40.0778 56.9529 40.0578 56.9891C40.0114 57.0732 39.9068 57.074 39.6335 56.9921C39.0595 56.8203 38.5458 56.5171 37.7907 55.9044C37.4371 55.6175 37.3875 55.5874 37.1658 55.5249C36.8405 55.4333 36.5085 55.5314 36.2512 55.795C35.966 56.0873 35.8918 56.472 36.0526 56.8243C36.1331 57.0007 36.4371 57.3117 36.8579 57.6482C37.5797 58.2254 38.2355 58.5725 38.9068 58.7324C39.7439 58.9319 39.8015 59.0198 39.6017 59.7938C39.5053 60.1669 39.4878 60.281 39.4999 60.4581C39.5199 60.7501 39.617 60.9553 39.8207 61.1357C40.1955 61.4677 40.7412 61.4683 41.1026 61.137C41.3504 60.9098 41.4189 60.7218 41.5669 59.861C41.6084 59.6203 41.6607 59.3948 41.6831 59.3599C41.7399 59.2718 41.8397 59.2416 42.1474 59.2193C43.6254 59.1123 45.0615 58.3034 45.9796 57.0608C46.3833 56.5143 46.6397 55.9788 46.8159 55.3144C47.1034 54.23 47.0083 53.1881 46.5336 52.2238C46.1162 51.3759 45.3344 50.6057 44.3179 50.0408C43.4202 49.542 43.4459 49.5615 43.4694 49.3971C43.52 49.0431 44.3735 44.4332 44.4011 44.365C44.4894 44.1466 44.9169 44.3851 45.6976 45.0883C46.1539 45.4993 46.3178 45.5871 46.6289 45.5871C46.9868 45.5871 47.3196 45.3879 47.5052 45.0628C47.5851 44.9229 47.5968 44.8712 47.597 44.6601C47.5972 44.3121 47.5197 44.1697 47.0984 43.7436C46.5088 43.1473 46.0408 42.8222 45.4517 42.5998C45.0449 42.4463 44.8997 42.3636 44.8419 42.2529C44.7817 42.1376 44.7945 41.9055 44.8801 41.5633C45.0184 41.01 44.9644 40.665 44.6981 40.3994C44.5015 40.2033 44.3065 40.1223 44.0056 40.1118C43.8097 40.105 43.7275 40.1158 43.625 40.1622ZM42.3783 44.1178C42.4125 44.2042 42.3987 44.3126 42.2729 44.944C42.1596 45.5127 41.858 47.1826 41.7247 47.9791C41.6951 48.1564 41.6596 48.3189 41.646 48.3403C41.6281 48.3684 41.5392 48.3146 41.3239 48.1449C40.4041 47.4206 40.1532 46.8909 40.3327 46.0525C40.4426 45.5388 40.653 45.1209 40.9778 44.7708C41.3462 44.3737 42.303 43.9276 42.3783 44.1178ZM43.7354 51.9619C44.2207 52.2729 44.5833 52.6809 44.7912 53.1501C45.0814 53.8051 45.0507 54.648 44.7101 55.376C44.4898 55.8467 44.0265 56.4022 43.5856 56.7241C43.1588 57.0357 42.5536 57.2795 42.2528 57.261L42.1005 57.2516L42.0914 57.1305C42.0864 57.0639 42.2504 56.0968 42.4558 54.9815C42.6613 53.8661 42.8809 52.6675 42.9437 52.3179C43.0065 51.9683 43.0635 51.6649 43.0704 51.6437C43.0866 51.5937 43.3794 51.7338 43.7354 51.9619Z" fill="white"/>
</svg>
