<svg width="100" height="100" viewBox="0 0 100 100" fill="none" xmlns="http://www.w3.org/2000/svg">
<circle cx="50" cy="50" r="50" fill="#FF9914"/>
<path fill-rule="evenodd" clip-rule="evenodd" d="M45.989 26.0465C45.4694 26.1507 45.3363 26.2281 43.6342 27.4175C40.7324 29.4453 38.6388 30.8789 37.008 31.9549C35.8973 32.6877 35.5729 33.0393 35.3454 33.7561L35.2544 34.0429L35.2382 40.1153C35.2208 46.6157 35.2309 46.2435 35.0697 46.3282C35.0366 46.3455 34.8961 46.3724 34.7576 46.3879C34.4381 46.4237 34.1989 46.5116 33.8998 46.7034C33.7695 46.7869 32.786 47.4646 31.7142 48.2093C28.9588 50.1239 27.8547 50.8844 26.5174 51.7889C25.8743 52.2238 25.2456 52.6616 25.1202 52.7618C24.6567 53.132 24.28 53.5991 24.0933 54.0351L24 54.2529L24.0015 63.3436L24.0029 72.4343L24.0793 72.709C24.1766 73.0594 24.2215 73.1498 24.4329 73.4222C24.7869 73.8784 25.3227 74.2184 25.9207 74.3662L26.2251 74.4415H35.6767C44.9116 74.4415 45.1346 74.4401 45.4028 74.3797C45.5703 74.342 45.7975 74.2574 45.986 74.1624C46.4368 73.9352 46.5181 73.9327 46.9531 74.1328C47.3422 74.3118 47.5598 74.3742 47.9694 74.424C48.3508 74.4703 66.2645 74.4706 66.6413 74.4242C66.9433 74.3871 67.3594 74.2674 67.6042 74.1472C68.0781 73.9147 68.1481 73.85 71.7871 70.2867C75.4009 66.7481 75.5652 66.5776 75.7566 66.1664C75.9479 65.7554 75.9352 66.4097 75.9352 56.9507V48.2827L75.7586 47.9331C75.4387 47.3001 75.0843 46.9352 74.5224 46.6601C74.2071 46.5058 73.8736 46.4098 73.4946 46.3643C73.3618 46.3484 71.4454 46.3389 69.1795 46.3428C65.6714 46.349 65.0929 46.3436 65.0287 46.3039L64.9541 46.2579L65.0687 46.1046C65.2483 45.8648 65.409 45.5006 65.4867 45.1578L65.558 44.8435V36.5917C65.558 28.7187 65.5553 28.3275 65.4986 28.0696C65.3833 27.5447 65.1738 27.13 64.8397 26.7655C64.6587 26.568 64.236 26.29 63.9474 26.1785C63.4552 25.9885 63.9505 25.9979 54.6812 26.0012C47.7671 26.0037 46.1611 26.012 45.989 26.0465ZM52.5599 27.7285C52.5472 27.7486 48.7414 30.656 47.3575 31.7028L47.0859 31.9083H43.6873C40.7784 31.9083 40.2888 31.9018 40.2888 31.8632C40.2888 31.8384 40.9547 31.3652 41.7685 30.8118C43.4125 29.6938 44.1864 29.1561 44.9793 28.5807C45.5861 28.1404 45.8079 28.0107 46.1844 27.8759C46.6684 27.7026 46.6947 27.7014 49.7526 27.7021C51.3055 27.7024 52.5688 27.7143 52.5599 27.7285ZM62.2938 27.7638C62.2938 27.8165 62.2502 27.8742 62.1557 27.9467C62.0798 28.005 60.9619 28.959 59.6715 30.0667C57.9198 31.5703 57.2937 32.0899 57.2007 32.1173C57.0886 32.1502 57.0449 32.1431 56.7698 32.047L56.4637 31.9401L53.2563 31.9308C50.9936 31.9243 50.0489 31.9115 50.0489 31.8873C50.0489 31.8169 50.3517 31.5775 52.7427 29.7577C55.3729 27.7559 55.3731 27.7556 55.5014 27.7176C55.5483 27.7037 57.0958 27.691 58.9403 27.6895L62.2938 27.6868V27.7638ZM63.7861 44.6911C63.7013 45.095 63.7415 45.0509 61.1012 47.6312L58.6398 50.0366L58.6227 42.0398C58.6133 37.6415 58.5937 34.007 58.5791 33.9632C58.4538 33.5873 58.4266 33.4783 58.4444 33.4232C58.4557 33.3883 59.0086 32.8958 59.6729 32.3288C60.3373 31.7618 61.5386 30.7351 62.3425 30.0473L63.8041 28.7968L63.8125 36.6608C63.8185 42.175 63.8105 44.5746 63.7861 44.6911ZM56.3267 33.7085C56.6031 33.7923 56.7403 33.9355 56.8172 34.2206C56.8687 34.4112 56.8718 35.0143 56.8628 43.0274C56.855 49.9855 56.8451 51.6527 56.811 51.75C56.7525 51.9166 56.5887 52.0897 56.415 52.1686L56.2688 52.235L47.0283 52.2443C36.7286 52.2547 37.532 52.2716 37.255 52.0391C37.1519 51.9525 37.1092 51.8834 37.0578 51.72C36.9926 51.5129 36.9921 51.4524 36.9921 42.9502C36.9921 35.1693 36.9969 34.3732 37.0445 34.2159C37.1358 33.9139 37.2795 33.7744 37.5815 33.6947C37.7308 33.6553 39.0511 33.6485 46.9356 33.6467C56.0361 33.6447 56.1176 33.6452 56.3267 33.7085ZM40.1914 45.4975C39.5312 45.5879 38.9725 46.0565 38.7692 46.69C38.7007 46.9038 38.6973 46.967 38.6973 48.0295C38.6973 49.0214 38.7039 49.1657 38.757 49.3357C38.9419 49.9275 39.3607 50.3383 39.964 50.5197C40.1443 50.5739 40.3101 50.5783 42.1726 50.5783C44.0352 50.5783 44.201 50.5739 44.3812 50.5197C44.6735 50.4318 44.9248 50.2888 45.1177 50.1004C45.3495 49.874 45.4865 49.6416 45.569 49.3352C45.6318 49.1021 45.6376 48.9943 45.6389 48.0454C45.6404 46.8776 45.6219 46.7368 45.416 46.3524C45.2805 46.0996 44.9697 45.7948 44.7215 45.6714C44.3451 45.4843 44.3527 45.4849 42.2863 45.4775C41.2413 45.4738 40.2985 45.4828 40.1914 45.4975ZM51.608 45.4867C51.0965 45.5707 50.7973 45.9258 50.8363 46.4024C50.864 46.7409 51.0632 47.0082 51.3724 47.1216C51.5357 47.1816 51.6265 47.1852 52.9892 47.1852C54.336 47.1852 54.4441 47.1811 54.5977 47.1238C54.8368 47.0347 54.9693 46.9221 55.068 46.7242C55.1447 46.5703 55.1538 46.5193 55.1436 46.2992C55.1338 46.0881 55.1167 46.0247 55.0336 45.8924C54.9024 45.6833 54.688 45.5451 54.4247 45.5002C54.2281 45.4666 51.8011 45.455 51.608 45.4867ZM43.7537 47.2132C43.7658 47.2153 43.7987 47.2396 43.8268 47.2671C43.8701 47.3096 43.8778 47.4241 43.8778 48.0256C43.8778 48.5805 43.868 48.7473 43.8326 48.7947C43.7893 48.8529 43.7219 48.8554 42.186 48.8566C40.7605 48.8577 40.5774 48.8522 40.5199 48.8065C40.4591 48.7583 40.455 48.713 40.4513 48.0578C40.4491 47.6742 40.4601 47.3345 40.4757 47.3029C40.4914 47.2712 40.5329 47.2349 40.5681 47.2221C40.6172 47.2043 43.6537 47.1958 43.7537 47.2132ZM35.1555 48.0824C35.201 48.1027 35.2389 48.135 35.2398 48.1541C35.2407 48.1732 35.2405 48.9343 35.2394 49.8455C35.2382 50.8316 35.2506 51.5731 35.2701 51.6774C35.2881 51.7738 35.3121 51.9266 35.3235 52.017C35.3433 52.175 35.3405 52.1829 35.2505 52.2244C35.1734 52.26 34.611 52.2657 32.0438 52.2569L28.9306 52.2464L29.0557 52.1578C30.1159 51.4068 34.8051 48.1714 34.9108 48.118C35.0795 48.0327 35.0529 48.0365 35.1555 48.0824ZM72.7847 48.0597C72.7847 48.0676 71.9261 48.8095 70.8768 49.7085C69.8274 50.6074 68.7069 51.5705 68.3868 51.8486C67.6255 52.51 67.5499 52.5433 67.146 52.3942C67.0272 52.3503 66.804 52.3002 66.65 52.2829C66.4823 52.2641 64.8583 52.2507 62.6023 52.2495L58.8347 52.2475L60.9459 50.1906C62.107 49.0592 63.1009 48.1143 63.1545 48.0908C63.2346 48.0555 64.0969 48.0477 68.0183 48.0466C70.6399 48.046 72.7847 48.0518 72.7847 48.0597ZM51.9165 48.8706C51.3802 48.8948 51.2677 48.9257 51.0942 49.0959C50.9407 49.2464 50.8545 49.434 50.8363 49.657C50.8057 50.0307 50.9743 50.3278 51.3082 50.4886L51.4943 50.5783H52.9883H54.4824L54.6542 50.5022C54.8562 50.4126 55.0558 50.2045 55.1101 50.0269C55.2532 49.5583 55.0165 49.047 54.6004 48.9258C54.4064 48.8693 52.7163 48.8345 51.9165 48.8706ZM74.2138 57.1038C74.2138 64.1688 74.2083 65.0663 74.1637 65.2201C74.1147 65.3892 74.0555 65.4498 71.5897 67.853C70.2015 69.2058 69.055 70.3134 69.0418 70.3142C69.0285 70.315 69.0139 66.7493 69.0093 62.3904C69.0012 54.7695 68.9985 54.4597 68.9409 54.3218C68.8516 54.1083 68.8566 53.8856 68.9549 53.6976C69.0216 53.5699 69.2086 53.3957 69.9769 52.7456C70.494 52.3081 71.6479 51.3226 72.5411 50.5558C73.4343 49.789 74.1761 49.1613 74.1895 49.161C74.2028 49.1608 74.2138 52.735 74.2138 57.1038ZM45.0885 54.0329C45.288 54.1065 45.457 54.2714 45.5403 54.4739L45.6155 54.6564V63.2745C45.6155 71.5953 45.6134 71.8985 45.555 72.0628C45.4763 72.2844 45.3478 72.4243 45.1366 72.5179L44.9659 72.5936L35.8066 72.603C29.0518 72.6099 26.5964 72.6029 26.4533 72.5761C26.1044 72.5108 25.9443 72.3957 25.8126 72.1153L25.7379 71.9564L25.7278 63.4338C25.7204 57.2826 25.7277 54.8534 25.7537 54.7035C25.8188 54.3293 26.0076 54.1095 26.3388 54.0223C26.6026 53.9529 44.8995 53.9632 45.0885 54.0329ZM66.748 54.0448C66.9482 54.1213 67.1158 54.2915 67.2058 54.5099L67.2794 54.6882V63.2745C67.2794 71.5643 67.2773 71.8667 67.219 72.031C67.1063 72.3483 66.8925 72.5136 66.5128 72.577C66.3654 72.6016 63.6526 72.6091 57.1782 72.6026C48.3136 72.5938 48.0469 72.5919 47.8925 72.5333C47.6791 72.4523 47.5006 72.2712 47.428 72.0617C47.3722 71.9007 47.3689 71.4915 47.3604 63.4338C47.3542 57.5783 47.3621 54.907 47.386 54.754C47.4281 54.4848 47.5565 54.2427 47.7099 54.1433C47.9856 53.9649 47.3938 53.9748 57.3893 53.9813C66.183 53.987 66.6041 53.9899 66.748 54.0448ZM28.8115 65.8724C28.4608 65.9471 28.2088 66.0842 27.9502 66.3411C27.7007 66.5889 27.5771 66.8001 27.4848 67.1362C27.4028 67.435 27.4034 69.31 27.4857 69.6147C27.6455 70.2064 28.0386 70.6309 28.6123 70.8313C28.8233 70.9049 28.8254 70.905 30.849 70.9139C33.056 70.9236 33.0647 70.923 33.4477 70.7406C33.7173 70.6122 34.0477 70.2871 34.1846 70.0153C34.3737 69.6401 34.4023 69.3847 34.385 68.2293C34.369 67.1656 34.3573 67.08 34.1788 66.7196C34.0567 66.4731 33.7187 66.1477 33.4518 66.0197C33.056 65.8299 32.981 65.8242 30.9022 65.8264C29.4267 65.828 28.9735 65.8379 28.8115 65.8724ZM40.1978 65.868C39.8193 65.9697 39.5809 66.2818 39.5809 66.6756C39.5809 66.9503 39.6606 67.1326 39.8584 67.3106C40.1117 67.5386 40.1534 67.5438 41.7341 67.5438C42.8665 67.5438 43.1487 67.5351 43.282 67.4963C43.7312 67.3654 43.9772 66.9462 43.8784 66.4796C43.8271 66.2369 43.6817 66.0563 43.4403 65.9352L43.2492 65.8392L41.8015 65.8327C40.6885 65.8276 40.3177 65.8358 40.1978 65.868ZM50.5284 65.8562C49.9929 65.9447 49.505 66.2864 49.288 66.7252C49.1049 67.0953 49.0908 67.213 49.0908 68.3721C49.0908 69.1646 49.1022 69.4846 49.1349 69.6147C49.2939 70.2458 49.7592 70.7106 50.3943 70.8729C50.675 70.9446 54.4244 70.9442 54.7111 70.8724C55.343 70.7142 55.8093 70.2639 55.9841 69.6429C56.0336 69.4675 56.0414 69.2945 56.0414 68.3881C56.0414 67.2297 56.0316 67.149 55.8431 66.7578C55.6974 66.4557 55.4209 66.1829 55.106 66.031C54.6868 65.8286 54.6296 65.8241 52.5499 65.8276C51.5227 65.8294 50.6131 65.8422 50.5284 65.8562ZM61.8954 65.858C61.4729 65.9556 61.2234 66.2621 61.2234 66.6835C61.2234 67.0316 61.3755 67.2778 61.6929 67.4432L61.8553 67.5278L63.3143 67.537C64.9624 67.5475 65.0003 67.5432 65.2625 67.3168C65.458 67.148 65.5506 66.9446 65.5506 66.6835C65.5506 66.2918 65.3291 66.007 64.9307 65.8863C64.737 65.8276 64.631 65.8235 63.3703 65.8265C62.6264 65.8283 61.9627 65.8424 61.8954 65.858ZM52.8532 67.539L54.1797 67.5597L54.2451 67.639C54.2982 67.7034 54.3072 67.7484 54.2928 67.8779C54.283 67.9658 54.2913 68.2189 54.3113 68.4406C54.3434 68.7968 54.3413 68.8598 54.2932 68.9833C54.2228 69.1641 54.1078 69.2309 53.8609 69.2343C53.7561 69.2358 53.0532 69.2271 52.2989 69.215C51.1465 69.1964 50.9211 69.1854 50.8875 69.1457C50.848 69.099 50.8352 68.9146 50.8209 68.181C50.8135 67.8025 50.8438 67.6821 50.9727 67.5772C51.0515 67.513 51.2196 67.4815 51.3806 67.5008C51.461 67.5104 52.1237 67.5276 52.8532 67.539ZM32.5605 67.5889C32.6117 67.6257 32.6239 67.6748 32.6258 67.8518C32.627 67.9715 32.64 68.2507 32.6547 68.4723C32.6798 68.8504 32.6771 68.884 32.6107 69.0185C32.5218 69.1986 32.4087 69.2487 32.1039 69.2427C31.9789 69.2402 31.2964 69.2281 30.5873 69.2158C29.3637 69.1946 29.295 69.1903 29.2404 69.131C29.1899 69.0763 29.1827 68.999 29.1817 68.5053C29.1806 67.8721 29.2133 67.7459 29.4031 67.6496C29.5717 67.5641 29.7828 67.5519 31.1639 67.5477C32.2686 67.5444 32.5083 67.5515 32.5605 67.5889ZM40.2726 69.2447C40.0392 69.2954 39.9162 69.3618 39.7861 69.5072C39.6443 69.6656 39.5862 69.8116 39.5797 70.0262C39.5712 70.3032 39.6443 70.4989 39.8208 70.672C40.0809 70.9271 40.117 70.9319 41.7666 70.9306C43.1414 70.9295 43.1845 70.9276 43.3652 70.8596C43.6779 70.7419 43.9103 70.4082 43.9103 70.0766C43.9103 69.8965 43.8131 69.6469 43.6914 69.5149C43.5461 69.3571 43.397 69.2804 43.1481 69.2352C42.8748 69.1857 40.5081 69.1934 40.2726 69.2447ZM61.9279 69.2342C61.6281 69.3058 61.3234 69.5603 61.2571 69.7945C61.1694 70.1044 61.2431 70.4475 61.4401 70.6464C61.6739 70.8825 61.7346 70.8978 62.5751 70.9313C63.0447 70.95 63.6303 70.9501 64.1341 70.9314C65.0262 70.8983 65.0868 70.8844 65.3159 70.6597C65.6689 70.3134 65.6242 69.6874 65.2267 69.412C64.9441 69.2162 64.9712 69.2193 63.4468 69.2118C62.6787 69.2081 61.9952 69.2182 61.9279 69.2342Z" fill="white"/>
</svg>
