<svg width="263" height="91" viewBox="0 0 263 91" fill="none" xmlns="http://www.w3.org/2000/svg">
<path d="M79.2083 31.9949C79.2071 32.5268 79.3376 33.0507 79.5885 33.5194C79.8516 34.0038 80.2168 34.4248 80.6589 34.7531C81.1573 35.1216 81.7164 35.3999 82.3103 35.5755C83.0015 35.7835 83.72 35.8849 84.4415 35.8764C85.8651 35.982 87.2891 35.6757 88.5441 34.9938C88.9626 34.7227 89.3032 34.3471 89.533 33.904C89.7628 33.4608 89.874 32.9654 89.855 32.4663C89.8813 31.8873 89.7234 31.3149 89.4045 30.8315C89.0703 30.3817 88.6349 30.0174 88.1337 29.7683C87.5116 29.4569 86.8571 29.2147 86.1823 29.0462C85.4219 28.8456 84.5916 28.645 83.6911 28.4444L82.0802 28.1034C81.4852 27.9779 80.8971 27.8205 80.3189 27.632C79.7322 27.4362 79.1604 27.1983 78.6079 26.9199C78.0671 26.6615 77.5679 26.3234 77.127 25.9169C76.7096 25.4844 76.3709 24.982 76.1264 24.4325C75.8567 23.7989 75.7235 23.1153 75.736 22.4265C75.7293 21.4201 75.9057 20.4208 76.2564 19.4778C76.5991 18.5843 77.1598 17.7912 77.8872 17.1709C78.732 16.4703 79.714 15.9544 80.7694 15.6564C82.1459 15.2678 83.5721 15.0853 85.0019 15.1148C86.1957 15.0962 87.3847 15.2689 88.5241 15.6263C89.4826 15.922 90.371 16.41 91.1355 17.0606C91.8375 17.6739 92.3918 18.4385 92.7566 19.2972C93.1368 20.2121 93.3275 21.1948 93.317 22.1858H89.0141C89.0192 21.7357 88.9237 21.2901 88.7342 20.882C88.5466 20.4883 88.2689 20.1446 87.9236 19.879C87.5171 19.5547 87.0514 19.3128 86.5527 19.1668C85.9256 18.9837 85.2749 18.8958 84.6218 18.9061C83.8648 18.8852 83.1088 18.9799 82.3802 19.1869C81.8674 19.328 81.3876 19.5701 80.9692 19.899C80.6384 20.162 80.3832 20.508 80.229 20.902C80.0987 21.2726 80.0309 21.6625 80.0287 22.0554C80.0098 22.5341 80.1626 23.0037 80.4591 23.3794C80.7798 23.7681 81.1829 24.08 81.6395 24.2921C82.2149 24.5635 82.8194 24.7687 83.4409 24.9039C84.1413 25.0643 84.9016 25.2048 85.7221 25.3151C86.8428 25.5558 87.9036 25.8366 88.9242 26.1576C89.8838 26.4429 90.7949 26.8724 91.6261 27.4314C92.3884 27.9489 93.0214 28.6353 93.4768 29.4373C93.9775 30.3981 94.2192 31.4734 94.1774 32.5566C94.192 33.603 93.948 34.6367 93.467 35.5655C92.9862 36.4595 92.3003 37.2261 91.4658 37.8022C90.5233 38.4468 89.4724 38.9156 88.3638 39.1863C87.0548 39.5118 85.71 39.6701 84.3614 39.6577C82.9197 39.6829 81.4855 39.445 80.1288 38.9556C79.0461 38.5674 78.0475 37.9751 77.1871 37.2104C76.4411 36.5352 75.8532 35.7028 75.4658 34.7731C75.0979 33.9073 74.9072 32.9762 74.9054 32.035L79.2083 31.9949Z" fill="white"/>
<path d="M97.4897 30.1896C97.4843 28.9291 97.7327 27.6806 98.2201 26.5187C98.6778 25.3907 99.3586 24.3672 100.221 23.5098C101.112 22.6465 102.162 21.9652 103.313 21.5038C104.552 21.0014 105.878 20.7491 107.215 20.7616C108.562 20.7473 109.899 20.9995 111.148 21.5038C112.302 21.9649 113.355 22.6462 114.25 23.5098C115.108 24.3708 115.788 25.3933 116.251 26.5187C116.743 27.6792 116.992 28.9287 116.982 30.1896C116.99 31.4493 116.745 32.6979 116.261 33.8605C115.803 34.9885 115.122 36.012 114.26 36.8694C113.362 37.7347 112.306 38.4161 111.148 38.8754C109.894 39.3763 108.555 39.625 107.206 39.6075C105.869 39.6242 104.543 39.3754 103.303 38.8754C102.158 38.4156 101.114 37.734 100.231 36.8694C99.3721 36.0089 98.6919 34.9862 98.2299 33.8605C97.7342 32.7008 97.4824 31.4512 97.4897 30.1896ZM101.682 30.1896C101.671 30.9893 101.818 31.7833 102.113 32.5265C102.396 33.2047 102.803 33.8238 103.313 34.3519C103.82 34.8646 104.421 35.2734 105.084 35.5555C105.778 35.8473 106.523 35.9941 107.275 35.9868C108.023 35.9934 108.765 35.8502 109.457 35.5655C110.122 35.2931 110.725 34.8869 111.228 34.372C111.747 33.8471 112.155 33.2229 112.428 32.5365C112.727 31.7906 112.877 30.9932 112.869 30.1896C112.876 29.3925 112.726 28.6019 112.428 27.8627C112.155 27.1823 111.747 26.5647 111.228 26.0473C110.721 25.5332 110.115 25.1272 109.447 24.8537C108.758 24.5677 108.02 24.4211 107.275 24.4225C106.524 24.4166 105.78 24.5598 105.084 24.8437C104.42 25.1186 103.818 25.5245 103.313 26.0372C102.803 26.5654 102.396 27.1845 102.113 27.8627C101.821 28.5963 101.675 29.3798 101.682 30.1695V30.1896Z" fill="white"/>
<path d="M129.769 35.9466C130.447 35.9606 131.123 35.8623 131.77 35.6558C132.322 35.4688 132.818 35.1444 133.211 34.713C133.634 34.2368 133.946 33.6712 134.122 33.0581C134.342 32.2581 134.446 31.4305 134.432 30.6008V21.2932H138.624V30.7211C138.655 32.0863 138.438 33.4456 137.984 34.7331C137.596 35.7777 136.973 36.7183 136.163 37.4812C135.366 38.2098 134.415 38.7482 133.381 39.0559C132.223 39.4047 131.018 39.5738 129.809 39.5574C128.603 39.5731 127.402 39.404 126.247 39.0559C125.212 38.7508 124.26 38.2121 123.465 37.4812C122.655 36.7183 122.032 35.7777 121.644 34.7331C121.19 33.4456 120.973 32.0863 121.004 30.7211V21.2932H125.156V30.6008C125.142 31.4239 125.247 32.2447 125.466 33.038C125.643 33.6488 125.95 34.2137 126.367 34.6929C126.757 35.1305 127.253 35.4588 127.808 35.6458C128.44 35.8544 129.103 35.9561 129.769 35.9466Z" fill="white"/>
<path d="M160.227 21.2932L152.693 39.0559H148.901L141.396 21.2932H145.869L150.782 33.4793L155.685 21.2932H160.227Z" fill="white"/>
<path d="M161.989 30.1896C161.98 28.9298 162.225 27.6812 162.709 26.5187C163.167 25.3907 163.847 24.3672 164.71 23.5098C165.605 22.6508 166.654 21.9701 167.802 21.5038C169.045 21.0013 170.374 20.7491 171.714 20.7616C173.061 20.7491 174.397 21.0013 175.647 21.5038C176.798 21.9652 177.848 22.6465 178.739 23.5098C179.6 24.3682 180.281 25.3915 180.74 26.5187C181.235 27.6785 181.488 28.928 181.481 30.1896C181.494 30.4167 181.494 30.6445 181.481 30.8716C181.481 31.0521 181.481 31.2126 181.411 31.3731H166.091C166.213 32.0831 166.468 32.7637 166.842 33.379C167.185 33.9494 167.625 34.4551 168.142 34.8735C168.656 35.2792 169.23 35.6008 169.844 35.8263C170.457 36.0454 171.103 36.1573 171.754 36.1573C172.712 36.1734 173.657 35.9383 174.496 35.4753C175.253 35.0495 175.877 34.4209 176.297 33.6599H180.83C180.526 34.4686 180.101 35.2262 179.569 35.9065C179.005 36.6446 178.33 37.2908 177.568 37.8222C176.763 38.3921 175.875 38.8352 174.937 39.1361C173.897 39.4753 172.808 39.6414 171.714 39.6276C170.374 39.6454 169.044 39.393 167.802 38.8854C166.652 38.4229 165.602 37.7417 164.71 36.8794C163.847 36.022 163.167 34.9985 162.709 33.8705C162.221 32.7056 161.976 31.453 161.989 30.1896ZM171.765 24.1717C171.085 24.1599 170.408 24.265 169.763 24.4827C169.179 24.6913 168.632 24.9927 168.142 25.3753C167.668 25.7575 167.259 26.2148 166.932 26.7293C166.597 27.2589 166.347 27.8375 166.191 28.4444H177.088C176.935 27.8397 176.692 27.2615 176.368 26.7293C176.055 26.2162 175.659 25.7586 175.196 25.3753C174.729 24.9934 174.202 24.6918 173.636 24.4827C173.037 24.2582 172.404 24.1394 171.765 24.1316V24.1717Z" fill="white"/>
<path d="M185.953 15.5862H195.039C196.717 15.5683 198.386 15.8258 199.982 16.3485C201.429 16.8302 202.763 17.6014 203.904 18.6152C205.026 19.6335 205.911 20.8867 206.496 22.2861C207.149 23.8753 207.469 25.5824 207.436 27.301C207.457 28.935 207.182 30.5592 206.626 32.0952C206.117 33.4941 205.303 34.7617 204.244 35.8062C203.134 36.8669 201.815 37.6834 200.372 38.2033C198.682 38.8001 196.9 39.0888 195.109 39.0559H185.953V15.5862ZM194.959 35.3448C196.145 35.3644 197.326 35.1812 198.451 34.8032C199.41 34.4729 200.284 33.9354 201.013 33.2286C201.719 32.5268 202.256 31.6726 202.583 30.7311C202.959 29.6517 203.142 28.5143 203.124 27.3712C203.135 26.2514 202.966 25.1372 202.623 24.0714C202.313 23.1239 201.797 22.2573 201.113 21.5339C200.396 20.7981 199.524 20.2326 198.561 19.879C197.405 19.467 196.185 19.2698 194.959 19.2972H190.246V35.3448H194.959Z" fill="white"/>
<path d="M211.499 16.2783C211.496 15.9639 211.561 15.6526 211.689 15.3656C211.817 15.089 211.993 14.8376 212.209 14.6234C212.448 14.4048 212.727 14.2346 213.03 14.1219C213.371 13.9896 213.735 13.9249 214.101 13.9313C214.467 13.9249 214.83 13.9896 215.171 14.1219C215.482 14.232 215.767 14.4024 216.012 14.6234C216.237 14.8318 216.418 15.0844 216.542 15.3656C216.67 15.6526 216.735 15.9639 216.732 16.2783C216.736 16.5896 216.671 16.8978 216.542 17.181C216.42 17.4635 216.239 17.7166 216.012 17.9232C215.767 18.1442 215.482 18.3146 215.171 18.4247C214.828 18.5496 214.466 18.6107 214.101 18.6052C213.739 18.6095 213.38 18.5484 213.04 18.4247C212.738 18.3096 212.46 18.1396 212.219 17.9232C211.995 17.7138 211.815 17.4615 211.689 17.181C211.56 16.8978 211.495 16.5896 211.499 16.2783ZM211.969 21.2932H216.212V39.0559H211.999L211.969 21.2932Z" fill="white"/>
<path d="M225.307 30.1695C225.293 30.9984 225.45 31.8213 225.768 32.5867C226.049 33.2699 226.468 33.8878 226.998 34.4021C227.51 34.9007 228.116 35.2927 228.78 35.5555C229.45 35.8163 230.162 35.9489 230.881 35.9466C231.921 35.9636 232.944 35.6854 233.833 35.1443C234.703 34.6098 235.398 33.8325 235.834 32.9076H240.117C239.864 33.8638 239.444 34.7672 238.876 35.5756C238.324 36.3824 237.649 37.0967 236.874 37.6918C236.054 38.3034 235.137 38.7745 234.163 39.086C233.107 39.4306 232.001 39.6 230.891 39.5875C229.55 39.6053 228.22 39.3529 226.978 38.8453C225.828 38.3828 224.778 37.7016 223.887 36.8393C223.031 35.9763 222.351 34.9542 221.885 33.8304C221.398 32.6755 221.149 31.4335 221.155 30.1795C221.146 28.9198 221.391 27.6712 221.876 26.5086C222.338 25.3833 223.018 24.3607 223.877 23.4997C224.764 22.6363 225.811 21.9549 226.959 21.4938C228.208 20.9902 229.544 20.738 230.891 20.7516C231.998 20.7439 233.099 20.9132 234.153 21.2531C235.12 21.575 236.031 22.0453 236.854 22.6472C237.635 23.2351 238.312 23.9505 238.856 24.7635C239.417 25.5771 239.84 26.4787 240.106 27.4314H235.824C235.388 26.512 234.692 25.7412 233.823 25.2148C232.933 24.6772 231.91 24.3993 230.871 24.4124C230.145 24.4078 229.424 24.5441 228.749 24.8136C228.087 25.0692 227.484 25.4584 226.978 25.957C226.454 26.478 226.039 27.0985 225.758 27.7824C225.445 28.5385 225.292 29.3512 225.307 30.1695Z" fill="white"/>
<path d="M243.508 30.1896C243.5 28.9298 243.745 27.6812 244.229 26.5187C244.687 25.3907 245.368 24.3672 246.23 23.5098C247.125 22.6508 248.174 21.9701 249.322 21.5038C250.561 21.0014 251.888 20.7491 253.225 20.7616C254.575 20.748 255.914 21.0002 257.167 21.5038C258.316 21.9676 259.366 22.6486 260.259 23.5098C261.12 24.3682 261.801 25.3914 262.26 26.5187C262.752 27.6792 263.001 28.9287 262.99 30.1896C263.003 30.4167 263.003 30.6444 262.99 30.8716C262.99 31.0521 262.941 31.2126 262.921 31.3731H247.601C247.719 32.0843 247.974 32.7657 248.352 33.379C248.692 33.9516 249.132 34.4579 249.652 34.8735C250.164 35.2818 250.739 35.6037 251.354 35.8263C251.967 36.0463 252.613 36.1583 253.264 36.1573C254.219 36.1749 255.161 35.9396 255.996 35.4753C256.758 35.0527 257.386 34.4236 257.807 33.6599H262.34C262.036 34.4686 261.611 35.2262 261.079 35.9065C260.515 36.6446 259.839 37.2908 259.078 37.8222C258.273 38.3921 257.385 38.8352 256.446 39.1361C255.403 39.475 254.311 39.641 253.214 39.6276C251.877 39.6441 250.55 39.3917 249.312 38.8854C248.162 38.4229 247.112 37.7417 246.22 36.8794C245.358 36.022 244.677 34.9985 244.219 33.8705C243.735 32.7048 243.493 31.4523 243.508 30.1896ZM253.284 24.1717C252.604 24.1599 251.928 24.265 251.283 24.4826C250.699 24.6913 250.152 24.9926 249.663 25.3753C249.185 25.7547 248.776 26.2126 248.452 26.7293C248.117 27.2589 247.867 27.8375 247.711 28.4444H258.608C258.455 27.8396 258.212 27.2615 257.887 26.7293C257.574 26.2162 257.179 25.7586 256.717 25.3753C256.249 24.9934 255.722 24.6918 255.156 24.4826C254.557 24.2582 253.924 24.1394 253.284 24.1316V24.1717Z" fill="white"/>
<path d="M77.127 63.2376C77.1317 63.5677 77.2176 63.8916 77.3772 64.1804C77.55 64.4866 77.7814 64.7558 78.0577 64.9728C78.3559 65.2172 78.6946 65.4073 79.0584 65.5344C79.4652 65.6685 79.8906 65.7362 80.3189 65.7351C81.2356 65.793 82.1494 65.584 82.9504 65.1333C83.2387 64.9433 83.4732 64.6819 83.631 64.3744C83.7888 64.0668 83.8649 63.7236 83.8513 63.3781C83.8607 63.0231 83.7628 62.6735 83.5709 62.3751C83.386 62.0883 83.1314 61.8535 82.8307 61.6931C82.478 61.4973 82.1011 61.3489 81.7099 61.2517C81.2896 61.1414 80.8292 61.0511 80.3389 60.9609L79.4184 60.8204C79.0806 60.7726 78.7463 60.7023 78.4178 60.6098C78.1072 60.5216 77.8058 60.4041 77.5174 60.2588C77.238 60.1263 76.981 59.9503 76.7567 59.7372C76.5356 59.5232 76.3588 59.2676 76.2363 58.985C76.1007 58.651 76.036 58.2924 76.0463 57.9319C76.0445 57.4665 76.1261 57.0045 76.2866 56.5678C76.4503 56.1284 76.7141 55.7334 77.0571 55.4144C77.4658 55.058 77.9423 54.7884 78.4579 54.6221C79.1488 54.4139 79.8678 54.3158 80.5891 54.3312C81.1725 54.3213 81.7539 54.4059 82.3103 54.5819C82.7844 54.7361 83.2253 54.9776 83.6109 55.2941C83.9633 55.5876 84.2438 55.9582 84.4313 56.3773C84.6236 56.8093 84.7195 57.2783 84.7117 57.7513H83.3109C83.3122 57.4457 83.2435 57.1438 83.1106 56.8687C82.9721 56.5998 82.7778 56.3638 82.5405 56.1767C82.2717 55.9785 81.9701 55.8291 81.6498 55.7354C81.2684 55.6309 80.8745 55.5803 80.4791 55.5849C79.9851 55.5697 79.492 55.6341 79.0183 55.7755C78.6759 55.879 78.3587 56.0533 78.0875 56.287C77.867 56.4833 77.6988 56.7315 77.5975 57.0091C77.5018 57.2656 77.4541 57.5377 77.4573 57.8115C77.442 58.1252 77.5299 58.4353 77.7074 58.6941C77.895 58.9442 78.1382 59.1469 78.4178 59.2859C78.7645 59.4525 79.1309 59.5739 79.5083 59.647C79.9286 59.7372 80.389 59.8175 80.8993 59.8776C81.2295 59.9378 81.5697 59.998 81.8999 60.0783C82.2387 60.1519 82.5729 60.2457 82.9005 60.3591C83.2135 60.4743 83.5149 60.6187 83.801 60.7904C84.0731 60.9613 84.3191 61.1707 84.5314 61.4122C84.7433 61.6692 84.9094 61.961 85.0219 62.2748C85.1496 62.6421 85.2102 63.0293 85.2017 63.4182C85.2125 63.9432 85.0959 64.4629 84.8617 64.9327C84.6285 65.3861 84.2842 65.7726 83.8611 66.056C83.3889 66.3876 82.8597 66.6291 82.3001 66.7681C81.6159 66.9365 80.9134 67.0174 80.209 67.0088C79.547 67.0202 78.8888 66.908 78.2678 66.6779C77.7397 66.4841 77.2514 66.1952 76.827 65.8253C76.4533 65.4898 76.153 65.0799 75.9461 64.6217C75.7441 64.1989 75.6381 63.7365 75.6359 63.2677L77.127 63.2376Z" fill="white"/>
<path d="M87.0731 62.1745C87.0696 61.5329 87.199 60.8977 87.4532 60.309C87.6867 59.7385 88.0262 59.2177 88.4538 58.7744C88.9057 58.3436 89.4356 58.0032 90.0148 57.7714C90.6332 57.5148 91.2969 57.3852 91.9662 57.3903C92.6523 57.3784 93.3335 57.5082 93.9674 57.7714C94.5509 58.0007 95.0842 58.3413 95.5382 58.7744C95.967 59.2129 96.3068 59.7306 96.5388 60.2989C96.789 60.8921 96.9151 61.5305 96.9091 62.1745C96.9171 62.8219 96.7909 63.4639 96.5388 64.0601C96.3068 64.6284 95.967 65.1461 95.5382 65.5846C95.0842 66.0176 94.5509 66.3583 93.9674 66.5876C93.3327 66.8474 92.6516 66.9737 91.9662 66.9587C91.2976 66.9669 90.6339 66.8407 90.0148 66.5876C89.4356 66.3558 88.9057 66.0154 88.4538 65.5846C88.0244 65.1466 87.6845 64.6287 87.4532 64.0601C87.1998 63.464 87.0706 62.8224 87.0731 62.1745ZM88.4538 62.1745C88.4461 62.6669 88.5418 63.1555 88.7342 63.6087C88.9089 64.037 89.1673 64.4258 89.4945 64.7521C89.8217 65.0683 90.2056 65.32 90.6255 65.4943C91.0668 65.6755 91.5391 65.7675 92.016 65.7651C92.4931 65.7694 92.9662 65.6773 93.407 65.4943C93.8269 65.32 94.2103 65.0683 94.5376 64.7521C94.8616 64.4231 95.12 64.035 95.2983 63.6087C95.4908 63.1555 95.586 62.6669 95.5783 62.1745C95.584 61.6854 95.4888 61.2005 95.2983 60.7503C95.1197 60.3271 94.8613 59.9423 94.5376 59.6169C94.2134 59.2945 93.8294 59.0389 93.407 58.8647C92.9662 58.6817 92.4931 58.5896 92.016 58.5938C91.5391 58.5915 91.0668 58.6835 90.6255 58.8647C90.2032 59.0389 89.8187 59.2945 89.4945 59.6169C89.1675 59.9396 88.9091 60.3251 88.7342 60.7503C88.5437 61.2005 88.448 61.6854 88.4538 62.1745Z" fill="white"/>
<path d="M103.563 65.7651C103.967 65.7933 104.373 65.7344 104.753 65.5926C105.132 65.4507 105.477 65.2292 105.764 64.9427C106.332 64.221 106.607 63.3112 106.535 62.3951V57.6209H107.916V62.4352C107.929 63.1161 107.828 63.7944 107.616 64.4412C107.437 64.9761 107.139 65.4631 106.745 65.8654C106.356 66.2426 105.887 66.5271 105.374 66.6979C104.789 66.8855 104.177 66.977 103.563 66.9687C102.948 66.977 102.337 66.8855 101.752 66.6979C101.238 66.5271 100.77 66.2426 100.381 65.8654C99.9868 65.4631 99.689 64.9761 99.5105 64.4412C99.298 63.7944 99.1962 63.1161 99.2101 62.4352V57.6209H100.591V62.3951C100.52 63.3049 100.787 64.2089 101.342 64.9326C101.632 65.222 101.979 65.4459 102.362 65.5895C102.745 65.733 103.155 65.7929 103.563 65.7651Z" fill="white"/>
<path d="M118.762 57.6209L114.83 66.728H113.549L109.617 57.6209H111.148L114.23 64.9226L117.332 57.6209H118.762Z" fill="white"/>
<path d="M119.963 62.1744C119.956 61.5336 120.082 60.8983 120.333 60.3089C120.567 59.7388 120.907 59.2182 121.334 58.7744C121.791 58.3457 122.324 58.0057 122.905 57.7714C123.523 57.5148 124.187 57.3852 124.856 57.3903C125.542 57.3815 126.222 57.5111 126.857 57.7714C127.437 58.0032 127.966 58.3436 128.418 58.7744C128.847 59.2129 129.186 59.7306 129.418 60.2989C129.672 60.8914 129.802 61.5298 129.799 62.1744V62.3851V62.6057H121.314C121.359 63.0737 121.498 63.5276 121.724 63.9397C121.933 64.3223 122.211 64.6625 122.545 64.9427C122.871 65.2227 123.243 65.4433 123.645 65.5946C124.049 65.7432 124.476 65.8179 124.906 65.8153C125.227 65.8167 125.546 65.7762 125.857 65.6949C126.154 65.6207 126.44 65.5059 126.707 65.3539C126.963 65.2052 127.199 65.023 127.407 64.8123C127.611 64.6027 127.786 64.3665 127.928 64.1102H129.429C129.254 64.5164 129.022 64.8949 128.738 65.2335C128.451 65.5878 128.114 65.8986 127.738 66.1563C127.338 66.4198 126.904 66.6258 126.447 66.7681C125.951 66.9192 125.434 66.9936 124.916 66.9888C124.247 66.997 123.584 66.8708 122.965 66.6176C122.384 66.3829 121.852 66.0429 121.394 65.6146C120.965 65.1762 120.625 64.6584 120.393 64.0901C120.119 63.4885 119.972 62.8361 119.963 62.1744ZM124.906 58.5136C124.458 58.5058 124.013 58.5841 123.595 58.7443C123.2 58.8922 122.834 59.1096 122.514 59.3862C122.198 59.6699 121.937 60.0099 121.744 60.3892C121.536 60.7731 121.398 61.1907 121.334 61.6228H128.428C128.368 61.1944 128.232 60.7802 128.028 60.3992C127.827 60.025 127.567 59.6862 127.257 59.3962C126.945 59.1199 126.586 58.9024 126.197 58.7543C125.786 58.5918 125.348 58.5101 124.906 58.5136Z" fill="white"/>
<path d="M141.166 66.728H139.785V61.8134C139.792 61.3187 139.728 60.8256 139.595 60.349C139.485 59.9752 139.289 59.632 139.025 59.3461C138.776 59.077 138.463 58.8767 138.114 58.7643C137.713 58.6375 137.294 58.5766 136.873 58.5838C136.456 58.5829 136.042 58.6611 135.653 58.8145C135.277 58.9669 134.936 59.1957 134.652 59.4865C134.365 59.7729 134.136 60.1138 133.981 60.4895C133.808 60.9124 133.723 61.3663 133.731 61.8234V66.6778H132.361V57.5708H133.501L133.621 58.9148C133.812 58.6853 134.027 58.4769 134.262 58.2929C134.515 58.0991 134.786 57.9311 135.072 57.7915C135.37 57.6451 135.681 57.5308 136.003 57.4505C136.33 57.3693 136.666 57.3256 137.003 57.3201C137.57 57.2744 138.139 57.35 138.674 57.5419C139.209 57.7339 139.697 58.0378 140.105 58.4334C140.842 59.3711 141.2 60.553 141.106 61.7432L141.166 66.728Z" fill="white"/>
<path d="M143.808 54.8828C143.805 54.7666 143.826 54.6511 143.871 54.5439C143.916 54.4368 143.983 54.3403 144.067 54.261C144.159 54.1731 144.267 54.1047 144.386 54.0599C144.505 54.0151 144.631 53.9948 144.758 54.0002C144.891 54.0023 145.023 54.026 145.148 54.0704C145.262 54.1193 145.367 54.1871 145.458 54.271C145.542 54.3472 145.61 54.4393 145.659 54.5418C145.707 54.649 145.73 54.7654 145.729 54.8828C145.732 55 145.709 55.1164 145.662 55.2238C145.616 55.3312 145.546 55.4271 145.458 55.5047C145.266 55.6754 145.015 55.7652 144.758 55.7554C144.632 55.7628 144.506 55.7443 144.387 55.7012C144.268 55.6581 144.16 55.5912 144.067 55.5047C143.983 55.4253 143.916 55.3289 143.871 55.2217C143.826 55.1145 143.805 54.999 143.808 54.8828ZM144.058 57.6209H145.448V66.728H144.058V57.6209Z" fill="white"/>
<path d="M154.484 58.8647H153.484C153.038 58.8595 152.594 58.9307 152.173 59.0753C151.798 59.2127 151.457 59.428 151.172 59.7072C150.88 60.0071 150.654 60.3661 150.512 60.7603C150.351 61.2245 150.273 61.7133 150.281 62.2046V66.728H148.911V57.6209H150.051L150.201 59.1455C150.361 58.918 150.549 58.7123 150.762 58.5337C150.984 58.3457 151.229 58.1873 151.492 58.0623C151.776 57.921 152.075 57.8133 152.383 57.7413C152.727 57.6594 153.08 57.619 153.433 57.6209H154.434L154.484 58.8647Z" fill="white"/>
<path d="M161.178 63.2376C161.178 63.5684 161.264 63.8934 161.428 64.1804C161.598 64.4888 161.83 64.7586 162.109 64.9728C162.406 65.2192 162.745 65.4095 163.11 65.5344C163.513 65.6691 163.935 65.7369 164.36 65.735C165.28 65.7938 166.197 65.5848 167.002 65.1332C167.288 64.9421 167.521 64.6802 167.677 64.3727C167.833 64.0653 167.907 63.7227 167.892 63.378C167.9 63.0247 167.806 62.6766 167.622 62.3751C167.434 62.087 167.176 61.8521 166.872 61.693C166.522 61.4989 166.149 61.3506 165.761 61.2517C165.331 61.1414 164.87 61.0511 164.39 60.9609L163.47 60.8204C163.149 60.7705 162.831 60.7001 162.519 60.6098C162.206 60.5199 161.901 60.4024 161.609 60.2588C161.333 60.1243 161.08 59.9484 160.858 59.7372C160.634 59.5235 160.454 59.268 160.328 58.985C160.197 58.6496 160.132 58.292 160.138 57.9319C160.136 57.4665 160.217 57.0045 160.378 56.5678C160.54 56.1251 160.808 55.729 161.158 55.4144C161.565 55.0561 162.042 54.7863 162.559 54.6221C163.246 54.414 163.962 54.3158 164.68 54.3312C165.267 54.3214 165.851 54.406 166.411 54.5819C166.885 54.7361 167.326 54.9776 167.712 55.2941C168.059 55.5929 168.339 55.9621 168.533 56.3773C168.725 56.8093 168.821 57.2783 168.813 57.7513H167.402C167.403 57.4457 167.335 57.1438 167.202 56.8687C167.07 56.5956 166.874 56.3583 166.632 56.1767C166.364 55.9764 166.062 55.8269 165.741 55.7354C165.363 55.6316 164.972 55.5809 164.58 55.5849C164.083 55.5705 163.587 55.6349 163.11 55.7755C162.771 55.8813 162.457 56.0554 162.189 56.287C161.965 56.4806 161.796 56.7296 161.699 57.0091C161.6 57.265 161.549 57.5371 161.549 57.8115C161.537 58.1263 161.628 58.4362 161.808 58.6941C161.993 58.9466 162.237 59.1498 162.519 59.2859C162.863 59.4511 163.226 59.5724 163.6 59.647C164.03 59.7372 164.49 59.8175 164.991 59.8776C165.331 59.9378 165.661 59.998 165.991 60.0782C166.33 60.15 166.665 60.2438 166.992 60.3591C167.305 60.4743 167.606 60.6187 167.892 60.7903C168.166 60.9587 168.413 61.1685 168.623 61.4122C168.838 61.6687 169.007 61.9605 169.123 62.2748C169.251 62.6421 169.312 63.0293 169.303 63.4182C169.314 63.9432 169.197 64.4629 168.963 64.9326C168.73 65.386 168.385 65.7726 167.962 66.056C167.488 66.3838 166.96 66.6249 166.402 66.7681C165.714 66.9365 165.008 67.0174 164.3 67.0088C163.638 67.0193 162.98 66.9071 162.359 66.6778C161.835 66.4816 161.35 66.1929 160.928 65.8253C160.552 65.49 160.248 65.0802 160.037 64.6217C159.843 64.1967 159.741 63.7352 159.737 63.2677L161.178 63.2376Z" fill="white"/>
<path d="M180.56 66.728H179.189V61.7131C179.202 61.2214 179.137 60.7307 178.999 60.2588C178.885 59.8843 178.686 59.5412 178.419 59.2558C178.161 59 177.845 58.8107 177.498 58.7042C177.082 58.5861 176.65 58.5286 176.217 58.5337C175.814 58.5317 175.414 58.6031 175.037 58.7443C174.664 58.8801 174.323 59.0918 174.036 59.3661C173.746 59.6484 173.52 59.9907 173.376 60.3691C173.207 60.776 173.122 61.2125 173.125 61.6529V66.6678H171.754V54.0704H173.186V58.8145C173.366 58.5918 173.571 58.39 173.796 58.2127C174.039 58.0288 174.301 57.8708 174.577 57.7413C174.868 57.6016 175.173 57.494 175.487 57.4204C175.814 57.3405 176.15 57.3 176.487 57.3C177.051 57.2566 177.618 57.3304 178.151 57.5168C178.685 57.7033 179.175 57.9982 179.589 58.3832C180.33 59.3075 180.688 60.4816 180.59 61.663L180.56 66.728Z" fill="white"/>
<path d="M182.932 62.1745C182.928 61.5329 183.058 60.8977 183.312 60.3089C183.545 59.7385 183.885 59.2177 184.312 58.7744C184.764 58.3436 185.294 58.0032 185.873 57.7714C186.508 57.5101 187.189 57.3804 187.875 57.3903C188.544 57.3852 189.207 57.5148 189.826 57.7714C190.409 58.0007 190.943 58.3413 191.397 58.7744C191.829 59.2102 192.169 59.7286 192.397 60.2989C192.651 60.8915 192.78 61.5298 192.778 62.1745C192.782 62.8226 192.653 63.4646 192.397 64.0601C192.169 64.6303 191.829 65.1488 191.397 65.5846C190.943 66.0176 190.409 66.3583 189.826 66.5876C189.206 66.8407 188.543 66.9669 187.875 66.9587C187.189 66.9717 186.509 66.8455 185.873 66.5876C185.294 66.3558 184.764 66.0154 184.312 65.5846C183.883 65.1466 183.543 64.6287 183.312 64.0601C183.059 63.464 182.929 62.8224 182.932 62.1745ZM184.312 62.1745C184.305 62.6669 184.4 63.1555 184.592 63.6087C184.771 64.035 185.029 64.4231 185.353 64.7521C185.68 65.0682 186.064 65.32 186.484 65.4943C186.925 65.6755 187.398 65.7675 187.875 65.7651C188.352 65.7694 188.824 65.6773 189.265 65.4943C189.685 65.32 190.069 65.0682 190.396 64.7521C190.72 64.4231 190.978 64.035 191.156 63.6087C191.349 63.1555 191.445 62.6669 191.437 62.1745C191.443 61.6854 191.347 61.2005 191.156 60.7503C190.978 60.3271 190.72 59.9423 190.396 59.6169C190.072 59.2944 189.688 59.0389 189.265 58.8647C188.824 58.6817 188.352 58.5896 187.875 58.5938C187.398 58.5914 186.925 58.6835 186.484 58.8647C186.061 59.0389 185.677 59.2944 185.353 59.6169C185.029 59.9423 184.771 60.3271 184.592 60.7503C184.402 61.2005 184.307 61.6854 184.312 62.1745Z" fill="white"/>
<path d="M205.265 62.1745C205.269 62.8206 205.147 63.4612 204.905 64.0601C204.676 64.6297 204.335 65.1479 203.904 65.5846C203.463 66.0147 202.943 66.3553 202.373 66.5875C201.762 66.842 201.105 66.9684 200.442 66.9587C200.058 66.9628 199.675 66.919 199.302 66.8283C198.955 66.7508 198.62 66.633 198.301 66.4772C197.995 66.3254 197.706 66.1404 197.441 65.9256C197.194 65.7144 196.969 65.4792 196.77 65.2235V69.8171H195.389V57.6009H196.53L196.67 59.1856C196.869 58.9265 197.094 58.688 197.34 58.4735C197.609 58.2489 197.9 58.0539 198.211 57.8918C198.526 57.7193 198.862 57.5879 199.211 57.5006C199.593 57.3988 199.987 57.3482 200.382 57.3501C201.047 57.3464 201.706 57.4724 202.323 57.7212C202.897 57.9528 203.42 58.2934 203.864 58.7242C204.292 59.164 204.631 59.6814 204.865 60.2488C205.127 60.8568 205.263 61.512 205.265 62.1745ZM203.884 62.1745C203.89 61.6822 203.794 61.194 203.604 60.7402C203.423 60.3158 203.161 59.9308 202.833 59.6068C202.509 59.2844 202.125 59.0288 201.703 58.8546C201.258 58.6727 200.782 58.5806 200.302 58.5838C199.822 58.5806 199.346 58.6727 198.901 58.8546C198.475 59.0262 198.087 59.2821 197.761 59.6068C197.436 59.9335 197.175 60.3178 196.99 60.7402C196.804 61.1954 196.709 61.6826 196.71 62.1745C196.709 62.6663 196.804 63.1535 196.99 63.6087C197.175 64.0311 197.436 64.4154 197.761 64.7421C198.092 65.0649 198.483 65.3203 198.911 65.4943C199.355 65.6773 199.832 65.7694 200.312 65.7651C200.792 65.7675 201.268 65.6755 201.713 65.4943C202.135 65.3201 202.52 65.0645 202.844 64.7421C203.165 64.415 203.423 64.0306 203.604 63.6087C203.794 63.1549 203.89 62.6667 203.884 62.1745Z" fill="white"/>
<path d="M39.4639 51.4526C39.4639 56.6983 37.385 61.7291 33.6845 65.4383C29.984 69.1475 24.9654 71.2313 19.7321 71.2313C17.1409 71.2313 14.5747 70.7197 12.1807 69.7258C9.78667 68.7318 7.6116 67.2749 5.77931 65.4383C3.94702 63.6017 2.49343 61.4213 1.5018 59.0216C0.510173 56.622 -9.15527e-05 54.05 -9.15527e-05 51.4526C-9.15527e-05 51.2821 -9.15527e-05 51.1116 -9.15527e-05 50.9512H9.53599C9.53599 51.1116 9.53599 51.2821 9.53599 51.4526C9.53599 54.1632 10.61 56.7628 12.5222 58.6795C14.4343 60.5962 17.0279 61.673 19.7321 61.673C22.4363 61.673 25.0295 60.5962 26.9416 58.6795C28.8538 56.7628 29.9283 54.1632 29.9283 51.4526C29.9283 51.2821 29.9283 51.1116 29.9283 50.9512C29.6681 45.5351 27.7767 40.6305 21.6229 39.7379L19.7419 39.5574C15.4771 39.5653 11.3258 38.1818 7.91489 35.6157C4.8191 33.2905 2.47097 30.1069 1.16077 26.4585C0.398696 24.3143 0.00957452 22.0549 0.0101686 19.7787C0.00831887 18.3761 0.155853 16.9774 0.450378 15.6063C1.40367 11.1874 3.83772 7.22886 7.34765 4.38946C10.8576 1.55006 15.2315 0.000984011 19.7419 0V9.54832C17.8475 9.5467 15.9903 10.0747 14.3788 11.0729C12.8998 11.9909 11.6795 13.2725 10.8337 14.7962C9.9878 16.3199 9.54439 18.035 9.54576 19.7787C9.54265 20.4966 9.61666 21.2129 9.76611 21.915C10.7667 26.5387 14.1889 31.6439 19.0818 31.6439H19.7419C24.0036 31.6359 28.152 33.0196 31.5592 35.5856C33.9496 37.3746 35.9032 39.6847 37.2726 42.3413C38.642 44.9979 39.3912 47.9317 39.4639 50.9211C39.4639 51.1116 39.4639 51.2821 39.4639 51.4526Z" fill="white"/>
<path d="M60.357 50.2792C60.357 61.079 56.0768 71.4365 48.4582 79.0731C40.8396 86.7098 30.5065 91 19.7322 91V81.4517C27.9784 81.449 35.8858 78.1636 41.7158 72.3179C47.5458 66.4722 50.8209 58.5449 50.8209 50.2792V49.7777C50.7507 45.0069 49.5859 40.3163 47.417 36.0691C45.2481 31.8218 42.1332 28.1319 38.3133 25.285C35.7016 23.3281 32.7971 21.798 29.708 20.7516C26.4842 19.662 23.104 19.1098 19.7019 19.1167V9.55836C21.4922 9.55343 23.2808 9.67072 25.0552 9.90941C29.9374 10.5479 34.6618 12.0776 38.9939 14.4228C45.3723 17.8733 50.7137 22.971 54.4648 29.1875C58.2158 35.404 60.2397 42.5131 60.3267 49.7777L60.357 50.2792Z" fill="white"/>
</svg>
