<svg width="51" height="50" viewBox="0 0 51 50" fill="none" xmlns="http://www.w3.org/2000/svg">
<path d="M33.3039 0H17.9559C3.95009 0 0.629883 3.32021 0.629883 17.326V32.674C0.629883 46.6798 3.95009 50 17.9559 50H33.3039C47.3097 50 50.6299 46.6798 50.6299 32.674V17.326C50.6299 3.32021 47.2769 0 33.3039 0ZM40.9942 35.6676H37.3647C35.9897 35.6676 35.5663 34.577 33.0929 32.0709C30.9446 29.9881 29.993 29.7116 29.4634 29.7116C28.7149 29.7116 28.5024 29.9225 28.5024 30.949V34.2286C28.5024 35.1083 28.2259 35.6364 25.8978 35.6364C22.048 35.6364 17.7762 33.3083 14.781 28.971C10.264 22.6149 9.02806 17.8541 9.02806 16.8698C9.02806 16.3401 9.23899 15.8448 10.2561 15.8448H13.8935C14.8138 15.8448 15.1638 16.2682 15.5216 17.2526C17.32 22.4446 20.3152 26.9929 21.5511 26.9929C22.0073 26.9929 22.2183 26.782 22.2183 25.618V20.2556C22.0792 17.7823 20.7777 17.5698 20.7777 16.6917C20.7777 16.2682 21.1277 15.8448 21.6886 15.8448H27.4087C28.1821 15.8448 28.4665 16.2682 28.4665 17.1792V24.4133C28.4665 25.1945 28.8165 25.4711 29.0274 25.4711C29.4837 25.4711 29.8743 25.1945 30.7196 24.3477C33.332 21.4181 35.2038 16.901 35.2038 16.901C35.4475 16.3714 35.871 15.8761 36.7913 15.8761H40.4286C41.5192 15.8761 41.763 16.437 41.5192 17.2182C41.063 19.3338 36.6116 25.6164 36.6116 25.6164C36.2288 26.2507 36.0819 26.5273 36.6116 27.2351C37.0022 27.7648 38.2725 28.8632 39.1177 29.8475C40.6724 31.6131 41.8677 33.0943 42.1864 34.1192C42.5442 35.1364 42.0161 35.6661 40.9896 35.6661L40.9942 35.6676Z" fill="white"/>
</svg>
